<?xml version="1.0" encoding="UTF-8"?>
<svg id="Livello_1" data-name="Livello 1" xmlns="http://www.w3.org/2000/svg" viewBox="0 0 283.46 283.46">
  <defs>
    <style>
      .cls-1 {
        fill: #1d1d1b;
      }

      .cls-2 {
        fill: #ededed;
      }
    </style>
  </defs>
  <g>
    <g>
      <path class="cls-2" d="M243.57,143.29c0,45.89-33.85,79.29-80.25,79.29h-22.35V64.35h22.35c46.56,0,80.25,33.23,80.25,78.95ZM236.06,143.29c0-41.59-30.52-71.88-72.9-71.88h-14.78v144.1h14.78c42.21,0,72.9-30.46,72.9-72.22Z"/>
      <path class="cls-2" d="M163.33,229.5h-29.28V57.43h29.28c50.51,0,87.17,36.11,87.17,85.87s-36.66,86.2-87.17,86.2ZM155.3,208.59h7.86c38.23,0,65.98-27.46,65.98-65.29s-27.75-64.96-65.98-64.96h-7.86v130.26Z"/>
    </g>
    <g>
      <path class="cls-2" d="M43.35,222.58v-78.95c0-45.89,33.85-79.29,80.25-79.29h24.78v6.67c-2.44-.41-5.03-.21-7.4.69v-.3h-17.21c-42.21,0-72.9,30.46-72.9,72.22v78.95h-7.52Z"/>
      <path class="cls-2" d="M57.79,229.5h-21.36v-85.87c0-49.96,36.66-86.21,87.17-86.21h31.7v21.77l-8.06-1.35c-1.34-.22-2.68-.09-3.82.34l-9.37,3.54v-3.4h-10.28c-38.23,0-65.98,27.47-65.98,65.3v85.87Z"/>
    </g>
    <g>
      <rect class="cls-2" x="92.34" y="109.4" width="7.75" height="97.99" transform="translate(-62.17 254.61) rotate(-90)"/>
      <rect class="cls-2" x="40.3" y="147.59" width="111.83" height="21.6"/>
    </g>
  </g>
  <g>
    <g>
      <path class="cls-1" d="M236.65,136.37c0,45.89-33.85,79.29-80.25,79.29h-22.35V57.43h22.35c46.56,0,80.25,33.23,80.25,78.95ZM229.13,136.37c0-41.59-30.52-71.88-72.9-71.88h-14.78v144.1h14.78c42.21,0,72.9-30.46,72.9-72.22Z"/>
      <path class="cls-1" d="M156.4,219.12h-25.82V53.96h25.82c48.5,0,83.71,34.66,83.71,82.41s-35.21,82.74-83.71,82.74ZM137.51,212.19h18.89c44.49,0,76.79-31.89,76.79-75.82s-32.29-75.49-76.79-75.49h-18.89v151.31ZM156.24,212.05h-18.25V61.03h18.25c44.24,0,76.36,31.69,76.36,75.35s-32.12,75.68-76.36,75.68ZM144.91,205.13h11.32c40.24,0,69.44-28.92,69.44-68.76s-29.2-68.42-69.44-68.42h-11.32v137.18Z"/>
    </g>
    <g>
      <path class="cls-1" d="M36.43,215.66v-78.95c0-45.89,33.85-79.29,80.25-79.29h24.78v6.67c-2.44-.41-5.03-.21-7.4.69v-.3h-17.21c-42.21,0-72.9,30.46-72.9,72.22v78.95h-7.52Z"/>
      <path class="cls-1" d="M47.41,219.12h-14.44v-82.4c0-47.95,35.21-82.75,83.71-82.75h28.24v14.22l-4.03-.67c-1.94-.31-3.87-.14-5.61.51l-4.68,1.77v-1.85h-13.74c-40.24,0-69.44,28.92-69.44,68.76v82.4ZM39.89,212.19h.59v-75.48c0-43.85,32.12-75.68,76.36-75.68h17.62c.2-.05.39-.09.57-.14h-18.37c-44.49,0-76.79,31.89-76.79,75.83v75.48Z"/>
    </g>
    <g>
      <rect class="cls-1" x="85.42" y="102.47" width="7.75" height="97.99" transform="translate(-62.17 240.76) rotate(-90)"/>
      <path class="cls-1" d="M141.75,158.8H36.84v-14.68h104.91v14.68ZM43.76,151.88h91.06v-.83H43.76v.83Z"/>
    </g>
  </g>
</svg>